<svg height="2478" width="720" xmlns="http://www.w3.org/2000/svg">
<rect height="2478" fill="#555" width="720"></rect>
<text fill="#7f7" font-family="Courier New" font-size="12" xml:space="preserve">
<tspan x="10" y="26"></tspan>
<tspan x="10" y="42">&gt; npmdoc-npm-check@0.0.1 test /home/travis/build/npmdoc/node-npmdoc-npm-check</tspan>
<tspan x="10" y="58">&gt; (set -e; export PORT=$(utility2 shServerPortRandom); utility2 test test.js)</tspan>
<tspan x="10" y="74"></tspan>
<tspan x="10" y="90"></tspan>
<tspan x="10" y="106">[MODE_BUILD=npmTest] - 2017-03-19T20:12:20Z - npm-testing /home/travis/build/npmdoc/node-npmdoc-\</tspan>
<tspan x="10" y="122">npm-check</tspan>
<tspan x="10" y="138"></tspan>
<tspan x="10" y="154"></tspan>
<tspan x="10" y="170">covering $ /home/travis/.nvm/versions/node/v7.7.3/bin/node /home/travis/build/npmdoc/node-npmdoc\</tspan>
<tspan x="10" y="186">-npm-check/test.js</tspan>
<tspan x="10" y="202">merging file:///home/travis/build/npmdoc/node-npmdoc-npm-check/tmp/build/test-report.json to tes\</tspan>
<tspan x="10" y="218">t-report</tspan>
<tspan x="10" y="234">&gt; server listening on http-port 49509</tspan>
<tspan x="10" y="250">created apidoc file:///home/travis/build/npmdoc/node-npmdoc-npm-check/tmp/build/apidoc.html</tspan>
<tspan x="10" y="266"></tspan>
<tspan x="10" y="282"></tspan>
<tspan x="10" y="298">browserTest - created electron entry-page /home/travis/build/npmdoc/node-npmdoc-npm-check/tmp/el\</tspan>
<tspan x="10" y="314">ectron.15ae83303d00.36452f0bf2e5a.html</tspan>
<tspan x="10" y="330"></tspan>
<tspan x="10" y="346">[node test-case 1 of 6 passed] - testCase_buildLib_default</tspan>
<tspan x="10" y="362">[node test-case 2 of 6 passed] - testCase_buildReadme_default</tspan>
<tspan x="10" y="378">[node test-case 3 of 6 passed] - testCase_buildTest_default</tspan>
<tspan x="10" y="394"></tspan>
<tspan x="10" y="410">browserTest - created electron entry-page /home/travis/build/npmdoc/node-npmdoc-npm-check/tmp/el\</tspan>
<tspan x="10" y="426">ectron.15ae83304170.7dd49b62422f9.html</tspan>
<tspan x="10" y="442"></tspan>
<tspan x="10" y="458">(node:4406) DeprecationWarning: node --debug is deprecated. Please use node --inspect instead.</tspan>
<tspan x="10" y="474">Xlib:  extension "RANDR" missing on display ":99.0".</tspan>
<tspan x="10" y="490">Xlib:  extension "RANDR" missing on display ":99.0".</tspan>
<tspan x="10" y="506">&gt; server listening on http-port 34462</tspan>
<tspan x="10" y="522">merging file:///home/travis/build/npmdoc/node-npmdoc-npm-check/tmp/build/test-report.json to tes\</tspan>
<tspan x="10" y="538">t-report</tspan>
<tspan x="10" y="554">Xlib:  extension "RANDR" missing on display ":99.0".</tspan>
<tspan x="10" y="570">[4437:0319/201223:WARNING:audio_manager.cc(314)] Multiple instances of AudioManager detected</tspan>
<tspan x="10" y="586">[4437:0319/201223:WARNING:audio_manager.cc(275)] Multiple instances of AudioManager detected</tspan>
<tspan x="10" y="602">merging file:///home/travis/build/npmdoc/node-npmdoc-npm-check/tmp/build/test-report.json to tes\</tspan>
<tspan x="10" y="618">t-report</tspan>
<tspan x="10" y="634">[4470:0319/201223:ERROR:sandbox_linux.cc(343)] InitializeSandbox() called with multiple threads \</tspan>
<tspan x="10" y="650">in process gpu-process. </tspan>
<tspan x="10" y="666">Xlib:  extension "RANDR" missing on display ":99.0".</tspan>
<tspan x="10" y="682">[4443:0319/201223:WARNING:audio_manager.cc(314)] Multiple instances of AudioManager detected</tspan>
<tspan x="10" y="698">[4443:0319/201223:WARNING:audio_manager.cc(275)] Multiple instances of AudioManager detected</tspan>
<tspan x="10" y="714">[4437:0319/201223:ERROR:browser_gpu_channel_host_factory.cc(131)] Failed to create channel.</tspan>
<tspan x="10" y="730">[4492:0319/201223:ERROR:sandbox_linux.cc(343)] InitializeSandbox() called with multiple threads \</tspan>
<tspan x="10" y="746">in process gpu-process. </tspan>
<tspan x="10" y="762">[4443:0319/201223:ERROR:browser_gpu_channel_host_factory.cc(131)] Failed to create channel.</tspan>
<tspan x="10" y="778"></tspan>
<tspan x="10" y="794">browserTest - opened url file:///home/travis/build/npmdoc/node-npmdoc-npm-check/tmp/build/apidoc\</tspan>
<tspan x="10" y="810">.html</tspan>
<tspan x="10" y="826"></tspan>
<tspan x="10" y="842"></tspan>
<tspan x="10" y="858">browserTest - created screen-capture file:///home/travis/build/npmdoc/node-npmdoc-npm-check/tmp/\</tspan>
<tspan x="10" y="874">build/screen-capture.npmTest.browser._2Fhome_2Ftravis_2Fbuild_2Fnpmdoc_2Fnode-npmdoc-npm-check_2\</tspan>
<tspan x="10" y="890">Ftmp_2Fbuild_2Fapidoc.html.png</tspan>
<tspan x="10" y="906"></tspan>
<tspan x="10" y="922"></tspan>
<tspan x="10" y="938">browserTest - exit-code 0 - file:///home/travis/build/npmdoc/node-npmdoc-npm-check/tmp/build/api\</tspan>
<tspan x="10" y="954">doc.html</tspan>
<tspan x="10" y="970"></tspan>
<tspan x="10" y="986">[node test-case 4 of 6 passed] - testCase_buildApidoc_default</tspan>
<tspan x="10" y="1002">[node test-case 5 of 6 passed] - testCase_buildApp_default</tspan>
<tspan x="10" y="1018"></tspan>
<tspan x="10" y="1034">browserTest - opened url http://127.0.0.1:49509?modeTest=1</tspan>
<tspan x="10" y="1050"></tspan>
<tspan x="10" y="1066"></tspan>
<tspan x="10" y="1082">npm-check    NOTUSED?  Still using npm-check?</tspan>
<tspan x="10" y="1098">                       Depcheck did not find code similar to require('npm-check') or import from\</tspan>
<tspan x="10" y="1114"> 'npm-check'.</tspan>
<tspan x="10" y="1130">                       Check your code before removing as depcheck isn't able to foresee all way\</tspan>
<tspan x="10" y="1146">s dependencies can be used.</tspan>
<tspan x="10" y="1162">                       Use --skip-unused to skip this check.</tspan>
<tspan x="10" y="1178">                       To remove this package: npm uninstall --save-dev npm-check</tspan>
<tspan x="10" y="1194"></tspan>
<tspan x="10" y="1210">source-map   MISSING!  Not installed.</tspan>
<tspan x="10" y="1226">             PKG ERR!  Not in the package.json. Found in: /tmp/assets.app.js</tspan>
<tspan x="10" y="1242"></tspan>
<tspan x="10" y="1258">estraverse   MISSING!  Not installed.</tspan>
<tspan x="10" y="1274">             PKG ERR!  Not in the package.json. Found in: /tmp/assets.app.js</tspan>
<tspan x="10" y="1290"></tspan>
<tspan x="10" y="1306">esutils      PKG ERR!  Not in the package.json. Found in: /tmp/assets.app.js</tspan>
<tspan x="10" y="1322"></tspan>
<tspan x="10" y="1338">esprima      PKG ERR!  Not in the package.json. Found in: /tmp/assets.app.js</tspan>
<tspan x="10" y="1354"></tspan>
<tspan x="10" y="1370">escodegen    MISSING!  Not installed.</tspan>
<tspan x="10" y="1386">             PKG ERR!  Not in the package.json. Found in: /tmp/assets.app.js</tspan>
<tspan x="10" y="1402"></tspan>
<tspan x="10" y="1418">handlebars   MISSING!  Not installed.</tspan>
<tspan x="10" y="1434">             PKG ERR!  Not in the package.json. Found in: /tmp/assets.app.js</tspan>
<tspan x="10" y="1450"></tspan>
<tspan x="10" y="1466">mkdirp       PKG ERR!  Not in the package.json. Found in: /tmp/assets.app.js</tspan>
<tspan x="10" y="1482"></tspan>
<tspan x="10" y="1498">electron     MISSING!  Not installed.</tspan>
<tspan x="10" y="1514">             PKG ERR!  Not in the package.json. Found in: /tmp/assets.app.js</tspan>
<tspan x="10" y="1530"></tspan>
<tspan x="10" y="1546">Use npm-check -u for interactive update.</tspan>
<tspan x="10" y="1562">[4443:0319/201231:INFO:CONSOLE(203)] "----------|-----------|-----------|-----------|-----------\</tspan>
<tspan x="10" y="1578">|</tspan>
<tspan x="10" y="1594">File      |   % Stmts |% Branches |   % Funcs |   % Lines |</tspan>
<tspan x="10" y="1610">----------|-----------|-----------|-----------|-----------|</tspan>
<tspan x="10" y="1626">----------|-----------|-----------|-----------|-----------|</tspan>
<tspan x="10" y="1642">All files |       100 |       100 |       100 |       100 |</tspan>
<tspan x="10" y="1658">----------|-----------|-----------|-----------|-----------|</tspan>
<tspan x="10" y="1674">", source: file:///home/travis/build/npmdoc/node-npmdoc-npm-check/tmp/electron.15ae83304170.7dd4\</tspan>
<tspan x="10" y="1690">9b62422f9.html (203)</tspan>
<tspan x="10" y="1706">[4443:0319/201231:INFO:CONSOLE(203)] "created coverage file:///tmp/build/coverage.html/index.htm\</tspan>
<tspan x="10" y="1722">l", source: file:///home/travis/build/npmdoc/node-npmdoc-npm-check/tmp/electron.15ae83304170.7dd\</tspan>
<tspan x="10" y="1738">49b62422f9.html (203)</tspan>
<tspan x="10" y="1754"></tspan>
<tspan x="10" y="1770">browserTest - created screen-capture file:///home/travis/build/npmdoc/node-npmdoc-npm-check/tmp/\</tspan>
<tspan x="10" y="1786">build/screen-capture.npmTest.browser..png</tspan>
<tspan x="10" y="1802"></tspan>
<tspan x="10" y="1818"></tspan>
<tspan x="10" y="1834">browserTest - exit-code 0 - http://127.0.0.1:49509?modeTest=1</tspan>
<tspan x="10" y="1850"></tspan>
<tspan x="10" y="1866"></tspan>
<tspan x="10" y="1882">browserTest - merged coverage from /home/travis/build/npmdoc/node-npmdoc-npm-check/tmp/coverage.\</tspan>
<tspan x="10" y="1898">npmTest.browser.%2F.json</tspan>
<tspan x="10" y="1914"></tspan>
<tspan x="10" y="1930"></tspan>
<tspan x="10" y="1946">browserTest - merging test-report from /home/travis/build/npmdoc/node-npmdoc-npm-check/tmp/test-\</tspan>
<tspan x="10" y="1962">report.npmTest.browser.%2F.json</tspan>
<tspan x="10" y="1978"></tspan>
<tspan x="10" y="1994">[node test-case 6 of 6 passed] - testCase_webpage_default</tspan>
<tspan x="10" y="2010">------------------------------|-----------|-----------|-----------|-----------|</tspan>
<tspan x="10" y="2026">File                          |   % Stmts |% Branches |   % Funcs |   % Lines |</tspan>
<tspan x="10" y="2042">------------------------------|-----------|-----------|-----------|-----------|</tspan>
<tspan x="10" y="2058">   node-npmdoc-npm-check/     |       100 |       100 |       100 |       100 |</tspan>
<tspan x="10" y="2074">      example.js              |       100 |       100 |       100 |       100 |</tspan>
<tspan x="10" y="2090">      lib.npmdoc_npm_check.js |       100 |       100 |       100 |       100 |</tspan>
<tspan x="10" y="2106">      test.js                 |       100 |       100 |       100 |       100 |</tspan>
<tspan x="10" y="2122">------------------------------|-----------|-----------|-----------|-----------|</tspan>
<tspan x="10" y="2138">All files                     |       100 |       100 |       100 |       100 |</tspan>
<tspan x="10" y="2154">------------------------------|-----------|-----------|-----------|-----------|</tspan>
<tspan x="10" y="2170"></tspan>
<tspan x="10" y="2186">created coverage file:///home/travis/build/npmdoc/node-npmdoc-npm-check/tmp/build/coverage.html/\</tspan>
<tspan x="10" y="2202">index.html</tspan>
<tspan x="10" y="2218">merging file:///home/travis/build/npmdoc/node-npmdoc-npm-check/tmp/build/test-report.json to tes\</tspan>
<tspan x="10" y="2234">t-report</tspan>
<tspan x="10" y="2250"></tspan>
<tspan x="10" y="2266">-------------------------------------------------------</tspan>
<tspan x="10" y="2282">| test-report - buildNpmdoc - node - linux v7.7.3 - 2017-03-19T20:12:10.453Z</tspan>
<tspan x="10" y="2298">|   23759 ms            0 failed        6 passed      |</tspan>
<tspan x="10" y="2314">-------------------------------------------------------</tspan>
<tspan x="10" y="2330"></tspan>
<tspan x="10" y="2346">created test-report file:///home/travis/build/npmdoc/node-npmdoc-npm-check/tmp/build/test-report\</tspan>
<tspan x="10" y="2362">.html</tspan>
<tspan x="10" y="2378"></tspan>
<tspan x="10" y="2394"></tspan>
<tspan x="10" y="2410">npmTest - 0 failed tests</tspan>
<tspan x="10" y="2426"></tspan>
<tspan x="10" y="2442"></tspan>
<tspan x="10" y="2458">[MODE_BUILD=npmTest] - 2017-03-19T20:12:37Z - EXIT_CODE - 0</tspan>
</text>
</svg>
