<svg height="2462" width="720" xmlns="http://www.w3.org/2000/svg">
<rect height="2462" fill="#555" width="720"></rect>
<text fill="#7f7" font-family="Courier New" font-size="12" xml:space="preserve">
<tspan x="10" y="26"></tspan>
<tspan x="10" y="42">&gt; npmdoc-npm-check@0.0.3 test /home/travis/build/npmdoc/node-npmdoc-npm-check</tspan>
<tspan x="10" y="58">&gt; (set -e; export PORT=$(utility2 shServerPortRandom); utility2 test test.js)</tspan>
<tspan x="10" y="74"></tspan>
<tspan x="10" y="90"></tspan>
<tspan x="10" y="106">[MODE_BUILD=npmTest] - 2017-03-26T10:54:43Z - npm-testing /home/travis/build/npmdoc/node-npmdoc-\</tspan>
<tspan x="10" y="122">npm-check</tspan>
<tspan x="10" y="138"></tspan>
<tspan x="10" y="154"></tspan>
<tspan x="10" y="170">covering $ /home/travis/.nvm/versions/node/v6.10.1/bin/node /home/travis/build/npmdoc/node-npmdo\</tspan>
<tspan x="10" y="186">c-npm-check/test.js</tspan>
<tspan x="10" y="202">merging file:///home/travis/build/npmdoc/node-npmdoc-npm-check/tmp/build/test-report.json to tes\</tspan>
<tspan x="10" y="218">t-report</tspan>
<tspan x="10" y="234">&gt; server listening on http-port 47628</tspan>
<tspan x="10" y="250">created apidoc file:///home/travis/build/npmdoc/node-npmdoc-npm-check/tmp/build/apidoc.html</tspan>
<tspan x="10" y="266"></tspan>
<tspan x="10" y="282"></tspan>
<tspan x="10" y="298">browserTest - created electron entry-page /home/travis/build/npmdoc/node-npmdoc-npm-check/tmp/el\</tspan>
<tspan x="10" y="314">ectron.15b0a4102720.55451b3d5f31a.html</tspan>
<tspan x="10" y="330"></tspan>
<tspan x="10" y="346">[node test-case 1 of 6 passed] - testCase_buildLib_default</tspan>
<tspan x="10" y="362">[node test-case 2 of 6 passed] - testCase_buildReadme_default</tspan>
<tspan x="10" y="378">[node test-case 3 of 6 passed] - testCase_buildTest_default</tspan>
<tspan x="10" y="394"></tspan>
<tspan x="10" y="410">browserTest - created electron entry-page /home/travis/build/npmdoc/node-npmdoc-npm-check/tmp/el\</tspan>
<tspan x="10" y="426">ectron.15b0a4102b20.c43b8a1917105.html</tspan>
<tspan x="10" y="442"></tspan>
<tspan x="10" y="458">Xlib:  extension "RANDR" missing on display ":99.0".</tspan>
<tspan x="10" y="474">Xlib:  extension "RANDR" missing on display ":99.0".</tspan>
<tspan x="10" y="490">&gt; server listening on http-port 40895</tspan>
<tspan x="10" y="506">merging file:///home/travis/build/npmdoc/node-npmdoc-npm-check/tmp/build/test-report.json to tes\</tspan>
<tspan x="10" y="522">t-report</tspan>
<tspan x="10" y="538">Xlib:  extension "RANDR" missing on display ":99.0".</tspan>
<tspan x="10" y="554">[4749:0326/105445:WARNING:audio_manager.cc(314)] Multiple instances of AudioManager detected</tspan>
<tspan x="10" y="570">[4749:0326/105445:WARNING:audio_manager.cc(275)] Multiple instances of AudioManager detected</tspan>
<tspan x="10" y="586">[4788:0326/105445:ERROR:sandbox_linux.cc(343)] InitializeSandbox() called with multiple threads \</tspan>
<tspan x="10" y="602">in process gpu-process. </tspan>
<tspan x="10" y="618">[4749:0326/105445:ERROR:browser_gpu_channel_host_factory.cc(131)] Failed to create channel.</tspan>
<tspan x="10" y="634">merging file:///home/travis/build/npmdoc/node-npmdoc-npm-check/tmp/build/test-report.json to tes\</tspan>
<tspan x="10" y="650">t-report</tspan>
<tspan x="10" y="666">Xlib:  extension "RANDR" missing on display ":99.0".</tspan>
<tspan x="10" y="682">[4764:0326/105446:WARNING:audio_manager.cc(314)] Multiple instances of AudioManager detected</tspan>
<tspan x="10" y="698">[4764:0326/105446:WARNING:audio_manager.cc(275)] Multiple instances of AudioManager detected</tspan>
<tspan x="10" y="714">[4818:0326/105446:ERROR:sandbox_linux.cc(343)] InitializeSandbox() called with multiple threads \</tspan>
<tspan x="10" y="730">in process gpu-process. </tspan>
<tspan x="10" y="746">[4764:0326/105446:ERROR:browser_gpu_channel_host_factory.cc(131)] Failed to create channel.</tspan>
<tspan x="10" y="762"></tspan>
<tspan x="10" y="778">browserTest - opened url file:///home/travis/build/npmdoc/node-npmdoc-npm-check/tmp/build/apidoc\</tspan>
<tspan x="10" y="794">.html</tspan>
<tspan x="10" y="810"></tspan>
<tspan x="10" y="826"></tspan>
<tspan x="10" y="842">browserTest - created screen-capture file:///home/travis/build/npmdoc/node-npmdoc-npm-check/tmp/\</tspan>
<tspan x="10" y="858">build/screen-capture.npmTest.browser._2Fhome_2Ftravis_2Fbuild_2Fnpmdoc_2Fnode-npmdoc-npm-check_2\</tspan>
<tspan x="10" y="874">Ftmp_2Fbuild_2Fapidoc.html.png</tspan>
<tspan x="10" y="890"></tspan>
<tspan x="10" y="906"></tspan>
<tspan x="10" y="922">browserTest - exit-code 0 - file:///home/travis/build/npmdoc/node-npmdoc-npm-check/tmp/build/api\</tspan>
<tspan x="10" y="938">doc.html</tspan>
<tspan x="10" y="954"></tspan>
<tspan x="10" y="970">[node test-case 4 of 6 passed] - testCase_buildApidoc_default</tspan>
<tspan x="10" y="986">[node test-case 5 of 6 passed] - testCase_buildApp_default</tspan>
<tspan x="10" y="1002"></tspan>
<tspan x="10" y="1018">browserTest - opened url http://127.0.0.1:47628?modeTest=1</tspan>
<tspan x="10" y="1034"></tspan>
<tspan x="10" y="1050"></tspan>
<tspan x="10" y="1066">npm-check    NOTUSED?  Still using npm-check?</tspan>
<tspan x="10" y="1082">                       Depcheck did not find code similar to require('npm-check') or import from\</tspan>
<tspan x="10" y="1098"> 'npm-check'.</tspan>
<tspan x="10" y="1114">                       Check your code before removing as depcheck isn't able to foresee all way\</tspan>
<tspan x="10" y="1130">s dependencies can be used.</tspan>
<tspan x="10" y="1146">                       Use --skip-unused to skip this check.</tspan>
<tspan x="10" y="1162">                       To remove this package: npm uninstall --save-dev npm-check</tspan>
<tspan x="10" y="1178"></tspan>
<tspan x="10" y="1194">source-map   MISSING!  Not installed.</tspan>
<tspan x="10" y="1210">             PKG ERR!  Not in the package.json. Found in: /tmp/assets.app.js</tspan>
<tspan x="10" y="1226"></tspan>
<tspan x="10" y="1242">estraverse   MISSING!  Not installed.</tspan>
<tspan x="10" y="1258">             PKG ERR!  Not in the package.json. Found in: /tmp/assets.app.js</tspan>
<tspan x="10" y="1274"></tspan>
<tspan x="10" y="1290">esutils      PKG ERR!  Not in the package.json. Found in: /tmp/assets.app.js</tspan>
<tspan x="10" y="1306"></tspan>
<tspan x="10" y="1322">esprima      PKG ERR!  Not in the package.json. Found in: /tmp/assets.app.js</tspan>
<tspan x="10" y="1338"></tspan>
<tspan x="10" y="1354">escodegen    MISSING!  Not installed.</tspan>
<tspan x="10" y="1370">             PKG ERR!  Not in the package.json. Found in: /tmp/assets.app.js</tspan>
<tspan x="10" y="1386"></tspan>
<tspan x="10" y="1402">handlebars   MISSING!  Not installed.</tspan>
<tspan x="10" y="1418">             PKG ERR!  Not in the package.json. Found in: /tmp/assets.app.js</tspan>
<tspan x="10" y="1434"></tspan>
<tspan x="10" y="1450">mkdirp       PKG ERR!  Not in the package.json. Found in: /tmp/assets.app.js</tspan>
<tspan x="10" y="1466"></tspan>
<tspan x="10" y="1482">electron     MISSING!  Not installed.</tspan>
<tspan x="10" y="1498">             PKG ERR!  Not in the package.json. Found in: /tmp/assets.app.js</tspan>
<tspan x="10" y="1514"></tspan>
<tspan x="10" y="1530">Use npm-check -u for interactive update.</tspan>
<tspan x="10" y="1546">[4764:0326/105455:INFO:CONSOLE(203)] "----------|-----------|-----------|-----------|-----------\</tspan>
<tspan x="10" y="1562">|</tspan>
<tspan x="10" y="1578">File      |   % Stmts |% Branches |   % Funcs |   % Lines |</tspan>
<tspan x="10" y="1594">----------|-----------|-----------|-----------|-----------|</tspan>
<tspan x="10" y="1610">----------|-----------|-----------|-----------|-----------|</tspan>
<tspan x="10" y="1626">All files |       100 |       100 |       100 |       100 |</tspan>
<tspan x="10" y="1642">----------|-----------|-----------|-----------|-----------|</tspan>
<tspan x="10" y="1658">", source: file:///home/travis/build/npmdoc/node-npmdoc-npm-check/tmp/electron.15b0a4102b20.c43b\</tspan>
<tspan x="10" y="1674">8a1917105.html (203)</tspan>
<tspan x="10" y="1690">[4764:0326/105455:INFO:CONSOLE(203)] "created coverage file:///tmp/build/coverage.html/index.htm\</tspan>
<tspan x="10" y="1706">l", source: file:///home/travis/build/npmdoc/node-npmdoc-npm-check/tmp/electron.15b0a4102b20.c43\</tspan>
<tspan x="10" y="1722">b8a1917105.html (203)</tspan>
<tspan x="10" y="1738"></tspan>
<tspan x="10" y="1754">browserTest - created screen-capture file:///home/travis/build/npmdoc/node-npmdoc-npm-check/tmp/\</tspan>
<tspan x="10" y="1770">build/screen-capture.npmTest.browser..png</tspan>
<tspan x="10" y="1786"></tspan>
<tspan x="10" y="1802"></tspan>
<tspan x="10" y="1818">browserTest - exit-code 0 - http://127.0.0.1:47628?modeTest=1</tspan>
<tspan x="10" y="1834"></tspan>
<tspan x="10" y="1850"></tspan>
<tspan x="10" y="1866">browserTest - merged coverage from /home/travis/build/npmdoc/node-npmdoc-npm-check/tmp/coverage.\</tspan>
<tspan x="10" y="1882">npmTest.browser.%2F.json</tspan>
<tspan x="10" y="1898"></tspan>
<tspan x="10" y="1914"></tspan>
<tspan x="10" y="1930">browserTest - merging test-report from /home/travis/build/npmdoc/node-npmdoc-npm-check/tmp/test-\</tspan>
<tspan x="10" y="1946">report.npmTest.browser.%2F.json</tspan>
<tspan x="10" y="1962"></tspan>
<tspan x="10" y="1978">[node test-case 6 of 6 passed] - testCase_webpage_default</tspan>
<tspan x="10" y="1994">------------------------------|-----------|-----------|-----------|-----------|</tspan>
<tspan x="10" y="2010">File                          |   % Stmts |% Branches |   % Funcs |   % Lines |</tspan>
<tspan x="10" y="2026">------------------------------|-----------|-----------|-----------|-----------|</tspan>
<tspan x="10" y="2042">   node-npmdoc-npm-check/     |       100 |       100 |       100 |       100 |</tspan>
<tspan x="10" y="2058">      example.js              |       100 |       100 |       100 |       100 |</tspan>
<tspan x="10" y="2074">      lib.npmdoc_npm_check.js |       100 |       100 |       100 |       100 |</tspan>
<tspan x="10" y="2090">      test.js                 |       100 |       100 |       100 |       100 |</tspan>
<tspan x="10" y="2106">------------------------------|-----------|-----------|-----------|-----------|</tspan>
<tspan x="10" y="2122">All files                     |       100 |       100 |       100 |       100 |</tspan>
<tspan x="10" y="2138">------------------------------|-----------|-----------|-----------|-----------|</tspan>
<tspan x="10" y="2154"></tspan>
<tspan x="10" y="2170">created coverage file:///home/travis/build/npmdoc/node-npmdoc-npm-check/tmp/build/coverage.html/\</tspan>
<tspan x="10" y="2186">index.html</tspan>
<tspan x="10" y="2202">merging file:///home/travis/build/npmdoc/node-npmdoc-npm-check/tmp/build/test-report.json to tes\</tspan>
<tspan x="10" y="2218">t-report</tspan>
<tspan x="10" y="2234"></tspan>
<tspan x="10" y="2250">-------------------------------------------------------</tspan>
<tspan x="10" y="2266">| test-report - buildNpmdoc - node - linux v6.10.1 - 2017-03-26T10:54:14.977Z</tspan>
<tspan x="10" y="2282">|   42345 ms            0 failed        6 passed      |</tspan>
<tspan x="10" y="2298">-------------------------------------------------------</tspan>
<tspan x="10" y="2314"></tspan>
<tspan x="10" y="2330">created test-report file:///home/travis/build/npmdoc/node-npmdoc-npm-check/tmp/build/test-report\</tspan>
<tspan x="10" y="2346">.html</tspan>
<tspan x="10" y="2362"></tspan>
<tspan x="10" y="2378"></tspan>
<tspan x="10" y="2394">npmTest - 0 failed tests</tspan>
<tspan x="10" y="2410"></tspan>
<tspan x="10" y="2426"></tspan>
<tspan x="10" y="2442">[MODE_BUILD=npmTest] - 2017-03-26T10:55:00Z - EXIT_CODE - 0</tspan>
</text>
</svg>
