<svg height="2734" width="720" xmlns="http://www.w3.org/2000/svg">
<rect height="2734" fill="#555" width="720"></rect>
<text fill="#7f7" font-family="Courier New" font-size="12" xml:space="preserve">
<tspan x="10" y="26"></tspan>
<tspan x="10" y="42">&gt; npmdoc-npm-check@0.0.1 test /home/travis/build/npmdoc/node-npmdoc-npm-check</tspan>
<tspan x="10" y="58">&gt; (set -e; export PORT=$(utility2 shServerPortRandom); utility2 test test.js)</tspan>
<tspan x="10" y="74"></tspan>
<tspan x="10" y="90"></tspan>
<tspan x="10" y="106">[MODE_BUILD=npmTest] - 2017-03-25T12:13:01Z - npm-testing /home/travis/build/npmdoc/node-npmdoc-\</tspan>
<tspan x="10" y="122">npm-check</tspan>
<tspan x="10" y="138"></tspan>
<tspan x="10" y="154"></tspan>
<tspan x="10" y="170">covering $ /home/travis/.nvm/versions/node/v6.10.1/bin/node /home/travis/build/npmdoc/node-npmdo\</tspan>
<tspan x="10" y="186">c-npm-check/test.js</tspan>
<tspan x="10" y="202">merging file:///home/travis/build/npmdoc/node-npmdoc-npm-check/tmp/build/test-report.json to tes\</tspan>
<tspan x="10" y="218">t-report</tspan>
<tspan x="10" y="234">&gt; server listening on http-port 40946</tspan>
<tspan x="10" y="250">created apidoc file:///home/travis/build/npmdoc/node-npmdoc-npm-check/tmp/build/apidoc.html</tspan>
<tspan x="10" y="266"></tspan>
<tspan x="10" y="282"></tspan>
<tspan x="10" y="298">browserTest - created electron entry-page /home/travis/build/npmdoc/node-npmdoc-npm-check/tmp/el\</tspan>
<tspan x="10" y="314">ectron.15b056255ff0.8f398d4712745.html</tspan>
<tspan x="10" y="330"></tspan>
<tspan x="10" y="346">[node test-case 1 of 6 passed] - testCase_buildLib_default</tspan>
<tspan x="10" y="362">[node test-case 2 of 6 passed] - testCase_buildReadme_default</tspan>
<tspan x="10" y="378">[node test-case 3 of 6 passed] - testCase_buildTest_default</tspan>
<tspan x="10" y="394"></tspan>
<tspan x="10" y="410">browserTest - created electron entry-page /home/travis/build/npmdoc/node-npmdoc-npm-check/tmp/el\</tspan>
<tspan x="10" y="426">ectron.15b0562564a0.6d61daba0a72.html</tspan>
<tspan x="10" y="442"></tspan>
<tspan x="10" y="458">Xlib:  extension "RANDR" missing on display ":99.0".</tspan>
<tspan x="10" y="474">Xlib:  extension "RANDR" missing on display ":99.0".</tspan>
<tspan x="10" y="490">&gt; server listening on http-port 40202</tspan>
<tspan x="10" y="506"></tspan>
<tspan x="10" y="522">/home/travis/build/npmdoc/node-npmdoc-npm-check/node_modules/utility2/lib.utility2.sh.html.js</tspan>
<tspan x="10" y="538"> #1 Line too long.</tspan>
<tspan x="10" y="554">    process.stdout.write('export npm_package_' + key.replace((/\W/g), '_') + '=' + JSON.stringif\</tspan>
<tspan x="10" y="570">y(value) + ';'); // Line 1445, Pos 116</tspan>
<tspan x="10" y="586"></tspan>
<tspan x="10" y="602"></tspan>
<tspan x="10" y="618">/home/travis/build/npmdoc/node-npmdoc-npm-check/node_modules/utility2/lib.utility2.sh.html.js</tspan>
<tspan x="10" y="634"> #1 Line too long.</tspan>
<tspan x="10" y="650">    process.stdout.write('export npm_package_' + key.replace((/\W/g), '_') + '=' + JSON.stringif\</tspan>
<tspan x="10" y="666">y(value) + ';'); // Line 1445, Pos 116</tspan>
<tspan x="10" y="682"></tspan>
<tspan x="10" y="698">merging file:///home/travis/build/npmdoc/node-npmdoc-npm-check/tmp/build/test-report.json to tes\</tspan>
<tspan x="10" y="714">t-report</tspan>
<tspan x="10" y="730">merging file:///home/travis/build/npmdoc/node-npmdoc-npm-check/tmp/build/test-report.json to tes\</tspan>
<tspan x="10" y="746">t-report</tspan>
<tspan x="10" y="762">Xlib:  extension "RANDR" missing on display ":99.0".</tspan>
<tspan x="10" y="778">Xlib:  extension "RANDR" missing on display ":99.0".</tspan>
<tspan x="10" y="794">[4889:0325/121303:WARNING:audio_manager.cc(314)] Multiple instances of AudioManager detected</tspan>
<tspan x="10" y="810">[4889:0325/121303:WARNING:audio_manager.cc(275)] Multiple instances of AudioManager detected</tspan>
<tspan x="10" y="826">[4896:0325/121303:WARNING:audio_manager.cc(314)] Multiple instances of AudioManager detected</tspan>
<tspan x="10" y="842">[4896:0325/121303:WARNING:audio_manager.cc(275)] Multiple instances of AudioManager detected</tspan>
<tspan x="10" y="858">[4928:0325/121304:ERROR:sandbox_linux.cc(343)] InitializeSandbox() called with multiple threads \</tspan>
<tspan x="10" y="874">in process gpu-process. </tspan>
<tspan x="10" y="890">[4933:0325/121304:ERROR:sandbox_linux.cc(343)] InitializeSandbox() called with multiple threads \</tspan>
<tspan x="10" y="906">in process gpu-process. </tspan>
<tspan x="10" y="922">[4896:0325/121304:ERROR:browser_gpu_channel_host_factory.cc(131)] Failed to create channel.</tspan>
<tspan x="10" y="938"></tspan>
<tspan x="10" y="954">browserTest - opened url file:///home/travis/build/npmdoc/node-npmdoc-npm-check/tmp/build/apidoc\</tspan>
<tspan x="10" y="970">.html</tspan>
<tspan x="10" y="986"></tspan>
<tspan x="10" y="1002"></tspan>
<tspan x="10" y="1018">browserTest - created screen-capture file:///home/travis/build/npmdoc/node-npmdoc-npm-check/tmp/\</tspan>
<tspan x="10" y="1034">build/screen-capture.npmTest.browser._2Fhome_2Ftravis_2Fbuild_2Fnpmdoc_2Fnode-npmdoc-npm-check_2\</tspan>
<tspan x="10" y="1050">Ftmp_2Fbuild_2Fapidoc.html.png</tspan>
<tspan x="10" y="1066"></tspan>
<tspan x="10" y="1082"></tspan>
<tspan x="10" y="1098">browserTest - exit-code 0 - file:///home/travis/build/npmdoc/node-npmdoc-npm-check/tmp/build/api\</tspan>
<tspan x="10" y="1114">doc.html</tspan>
<tspan x="10" y="1130"></tspan>
<tspan x="10" y="1146">[node test-case 4 of 6 passed] - testCase_buildApidoc_default</tspan>
<tspan x="10" y="1162">[node test-case 5 of 6 passed] - testCase_buildApp_default</tspan>
<tspan x="10" y="1178"></tspan>
<tspan x="10" y="1194">browserTest - opened url http://127.0.0.1:40946?modeTest=1</tspan>
<tspan x="10" y="1210"></tspan>
<tspan x="10" y="1226"></tspan>
<tspan x="10" y="1242">npm-check    NOTUSED?  Still using npm-check?</tspan>
<tspan x="10" y="1258">                       Depcheck did not find code similar to require('npm-check') or import from\</tspan>
<tspan x="10" y="1274"> 'npm-check'.</tspan>
<tspan x="10" y="1290">                       Check your code before removing as depcheck isn't able to foresee all way\</tspan>
<tspan x="10" y="1306">s dependencies can be used.</tspan>
<tspan x="10" y="1322">                       Use --skip-unused to skip this check.</tspan>
<tspan x="10" y="1338">                       To remove this package: npm uninstall --save-dev npm-check</tspan>
<tspan x="10" y="1354"></tspan>
<tspan x="10" y="1370">source-map   MISSING!  Not installed.</tspan>
<tspan x="10" y="1386">             PKG ERR!  Not in the package.json. Found in: /tmp/assets.app.js</tspan>
<tspan x="10" y="1402"></tspan>
<tspan x="10" y="1418">estraverse   MISSING!  Not installed.</tspan>
<tspan x="10" y="1434">             PKG ERR!  Not in the package.json. Found in: /tmp/assets.app.js</tspan>
<tspan x="10" y="1450"></tspan>
<tspan x="10" y="1466">esutils      PKG ERR!  Not in the package.json. Found in: /tmp/assets.app.js</tspan>
<tspan x="10" y="1482"></tspan>
<tspan x="10" y="1498">esprima      PKG ERR!  Not in the package.json. Found in: /tmp/assets.app.js</tspan>
<tspan x="10" y="1514"></tspan>
<tspan x="10" y="1530">escodegen    MISSING!  Not installed.</tspan>
<tspan x="10" y="1546">             PKG ERR!  Not in the package.json. Found in: /tmp/assets.app.js</tspan>
<tspan x="10" y="1562"></tspan>
<tspan x="10" y="1578">handlebars   MISSING!  Not installed.</tspan>
<tspan x="10" y="1594">             PKG ERR!  Not in the package.json. Found in: /tmp/assets.app.js</tspan>
<tspan x="10" y="1610"></tspan>
<tspan x="10" y="1626">mkdirp       PKG ERR!  Not in the package.json. Found in: /tmp/assets.app.js</tspan>
<tspan x="10" y="1642"></tspan>
<tspan x="10" y="1658">electron     MISSING!  Not installed.</tspan>
<tspan x="10" y="1674">             PKG ERR!  Not in the package.json. Found in: /tmp/assets.app.js</tspan>
<tspan x="10" y="1690"></tspan>
<tspan x="10" y="1706">Use npm-check -u for interactive update.</tspan>
<tspan x="10" y="1722">[4896:0325/121312:INFO:CONSOLE(203)] "----------|-----------|-----------|-----------|-----------\</tspan>
<tspan x="10" y="1738">|</tspan>
<tspan x="10" y="1754">File      |   % Stmts |% Branches |   % Funcs |   % Lines |</tspan>
<tspan x="10" y="1770">----------|-----------|-----------|-----------|-----------|</tspan>
<tspan x="10" y="1786">----------|-----------|-----------|-----------|-----------|</tspan>
<tspan x="10" y="1802">All files |       100 |       100 |       100 |       100 |</tspan>
<tspan x="10" y="1818">----------|-----------|-----------|-----------|-----------|</tspan>
<tspan x="10" y="1834">", source: file:///home/travis/build/npmdoc/node-npmdoc-npm-check/tmp/electron.15b0562564a0.6d61\</tspan>
<tspan x="10" y="1850">daba0a72.html (203)</tspan>
<tspan x="10" y="1866">[4896:0325/121312:INFO:CONSOLE(203)] "created coverage file:///tmp/build/coverage.html/index.htm\</tspan>
<tspan x="10" y="1882">l", source: file:///home/travis/build/npmdoc/node-npmdoc-npm-check/tmp/electron.15b0562564a0.6d6\</tspan>
<tspan x="10" y="1898">1daba0a72.html (203)</tspan>
<tspan x="10" y="1914"></tspan>
<tspan x="10" y="1930">browserTest - created screen-capture file:///home/travis/build/npmdoc/node-npmdoc-npm-check/tmp/\</tspan>
<tspan x="10" y="1946">build/screen-capture.npmTest.browser..png</tspan>
<tspan x="10" y="1962"></tspan>
<tspan x="10" y="1978"></tspan>
<tspan x="10" y="1994">browserTest - exit-code 0 - http://127.0.0.1:40946?modeTest=1</tspan>
<tspan x="10" y="2010"></tspan>
<tspan x="10" y="2026"></tspan>
<tspan x="10" y="2042">browserTest - merged coverage from /home/travis/build/npmdoc/node-npmdoc-npm-check/tmp/coverage.\</tspan>
<tspan x="10" y="2058">npmTest.browser.%2F.json</tspan>
<tspan x="10" y="2074"></tspan>
<tspan x="10" y="2090"></tspan>
<tspan x="10" y="2106">browserTest - merging test-report from /home/travis/build/npmdoc/node-npmdoc-npm-check/tmp/test-\</tspan>
<tspan x="10" y="2122">report.npmTest.browser.%2F.json</tspan>
<tspan x="10" y="2138"></tspan>
<tspan x="10" y="2154">[node test-case 6 of 6 passed] - testCase_webpage_default</tspan>
<tspan x="10" y="2170">------------------------------|-----------|-----------|-----------|-----------|</tspan>
<tspan x="10" y="2186">File                          |   % Stmts |% Branches |   % Funcs |   % Lines |</tspan>
<tspan x="10" y="2202">------------------------------|-----------|-----------|-----------|-----------|</tspan>
<tspan x="10" y="2218">   node-npmdoc-npm-check/     |       100 |       100 |       100 |       100 |</tspan>
<tspan x="10" y="2234">      example.js              |       100 |       100 |       100 |       100 |</tspan>
<tspan x="10" y="2250">      lib.npmdoc_npm_check.js |       100 |       100 |       100 |       100 |</tspan>
<tspan x="10" y="2266">      test.js                 |       100 |       100 |       100 |       100 |</tspan>
<tspan x="10" y="2282">------------------------------|-----------|-----------|-----------|-----------|</tspan>
<tspan x="10" y="2298">All files                     |       100 |       100 |       100 |       100 |</tspan>
<tspan x="10" y="2314">------------------------------|-----------|-----------|-----------|-----------|</tspan>
<tspan x="10" y="2330"></tspan>
<tspan x="10" y="2346">created coverage file:///home/travis/build/npmdoc/node-npmdoc-npm-check/tmp/build/coverage.html/\</tspan>
<tspan x="10" y="2362">index.html</tspan>
<tspan x="10" y="2378"></tspan>
<tspan x="10" y="2394">/home/travis/build/npmdoc/node-npmdoc-npm-check/node_modules/utility2/lib.utility2.sh.html.js</tspan>
<tspan x="10" y="2410"> #1 Line too long.</tspan>
<tspan x="10" y="2426">    process.stdout.write('export npm_package_' + key.replace((/\W/g), '_') + '=' + JSON.stringif\</tspan>
<tspan x="10" y="2442">y(value) + ';'); // Line 1445, Pos 116</tspan>
<tspan x="10" y="2458"></tspan>
<tspan x="10" y="2474">merging file:///home/travis/build/npmdoc/node-npmdoc-npm-check/tmp/build/test-report.json to tes\</tspan>
<tspan x="10" y="2490">t-report</tspan>
<tspan x="10" y="2506"></tspan>
<tspan x="10" y="2522">-------------------------------------------------------</tspan>
<tspan x="10" y="2538">| test-report - buildNpmdoc - node - linux v6.10.1 - 2017-03-25T12:12:49.171Z</tspan>
<tspan x="10" y="2554">|   25984 ms            0 failed        6 passed      |</tspan>
<tspan x="10" y="2570">-------------------------------------------------------</tspan>
<tspan x="10" y="2586"></tspan>
<tspan x="10" y="2602">created test-report file:///home/travis/build/npmdoc/node-npmdoc-npm-check/tmp/build/test-report\</tspan>
<tspan x="10" y="2618">.html</tspan>
<tspan x="10" y="2634"></tspan>
<tspan x="10" y="2650"></tspan>
<tspan x="10" y="2666">npmTest - 0 failed tests</tspan>
<tspan x="10" y="2682"></tspan>
<tspan x="10" y="2698"></tspan>
<tspan x="10" y="2714">[MODE_BUILD=npmTest] - 2017-03-25T12:13:18Z - EXIT_CODE - 0</tspan>
</text>
</svg>
