<svg height="2446" width="720" xmlns="http://www.w3.org/2000/svg">
<rect height="2446" fill="#555" width="720"></rect>
<text fill="#7f7" font-family="Courier New" font-size="12" xml:space="preserve">
<tspan x="10" y="26"></tspan>
<tspan x="10" y="42">&gt; npmdoc-npm-check@0.0.2 test /home/travis/build/npmdoc/node-npmdoc-npm-check</tspan>
<tspan x="10" y="58">&gt; (set -e; export PORT=$(utility2 shServerPortRandom); utility2 test test.js)</tspan>
<tspan x="10" y="74"></tspan>
<tspan x="10" y="90"></tspan>
<tspan x="10" y="106">[MODE_BUILD=npmTest] - 2017-03-25T17:43:58Z - npm-testing /home/travis/build/npmdoc/node-npmdoc-\</tspan>
<tspan x="10" y="122">npm-check</tspan>
<tspan x="10" y="138"></tspan>
<tspan x="10" y="154"></tspan>
<tspan x="10" y="170">covering $ /home/travis/.nvm/versions/node/v6.10.1/bin/node /home/travis/build/npmdoc/node-npmdo\</tspan>
<tspan x="10" y="186">c-npm-check/test.js</tspan>
<tspan x="10" y="202">merging file:///home/travis/build/npmdoc/node-npmdoc-npm-check/tmp/build/test-report.json to tes\</tspan>
<tspan x="10" y="218">t-report</tspan>
<tspan x="10" y="234">&gt; server listening on http-port 44010</tspan>
<tspan x="10" y="250">created apidoc file:///home/travis/build/npmdoc/node-npmdoc-npm-check/tmp/build/apidoc.html</tspan>
<tspan x="10" y="266"></tspan>
<tspan x="10" y="282"></tspan>
<tspan x="10" y="298">browserTest - created electron entry-page /home/travis/build/npmdoc/node-npmdoc-npm-check/tmp/el\</tspan>
<tspan x="10" y="314">ectron.15b069154b50.8c34ee438fbe9.html</tspan>
<tspan x="10" y="330"></tspan>
<tspan x="10" y="346">[node test-case 1 of 6 passed] - testCase_buildLib_default</tspan>
<tspan x="10" y="362">[node test-case 2 of 6 passed] - testCase_buildReadme_default</tspan>
<tspan x="10" y="378">[node test-case 3 of 6 passed] - testCase_buildTest_default</tspan>
<tspan x="10" y="394"></tspan>
<tspan x="10" y="410">browserTest - created electron entry-page /home/travis/build/npmdoc/node-npmdoc-npm-check/tmp/el\</tspan>
<tspan x="10" y="426">ectron.15b069154f60.df95862ef886d.html</tspan>
<tspan x="10" y="442"></tspan>
<tspan x="10" y="458">Xlib:  extension "RANDR" missing on display ":99.0".</tspan>
<tspan x="10" y="474">Xlib:  extension "RANDR" missing on display ":99.0".</tspan>
<tspan x="10" y="490">&gt; server listening on http-port 62922</tspan>
<tspan x="10" y="506">merging file:///home/travis/build/npmdoc/node-npmdoc-npm-check/tmp/build/test-report.json to tes\</tspan>
<tspan x="10" y="522">t-report</tspan>
<tspan x="10" y="538">Xlib:  extension "RANDR" missing on display ":99.0".</tspan>
<tspan x="10" y="554">[4697:0325/174400:WARNING:audio_manager.cc(314)] Multiple instances of AudioManager detected</tspan>
<tspan x="10" y="570">[4697:0325/174400:WARNING:audio_manager.cc(275)] Multiple instances of AudioManager detected</tspan>
<tspan x="10" y="586">[4724:0325/174400:ERROR:sandbox_linux.cc(343)] InitializeSandbox() called with multiple threads \</tspan>
<tspan x="10" y="602">in process gpu-process. </tspan>
<tspan x="10" y="618">merging file:///home/travis/build/npmdoc/node-npmdoc-npm-check/tmp/build/test-report.json to tes\</tspan>
<tspan x="10" y="634">t-report</tspan>
<tspan x="10" y="650">Xlib:  extension "RANDR" missing on display ":99.0".</tspan>
<tspan x="10" y="666">[4697:0325/174401:ERROR:browser_gpu_channel_host_factory.cc(131)] Failed to create channel.</tspan>
<tspan x="10" y="682">[4701:0325/174401:WARNING:audio_manager.cc(314)] Multiple instances of AudioManager detected</tspan>
<tspan x="10" y="698">[4701:0325/174401:WARNING:audio_manager.cc(275)] Multiple instances of AudioManager detected</tspan>
<tspan x="10" y="714">[4749:0325/174401:ERROR:sandbox_linux.cc(343)] InitializeSandbox() called with multiple threads \</tspan>
<tspan x="10" y="730">in process gpu-process. </tspan>
<tspan x="10" y="746"></tspan>
<tspan x="10" y="762">browserTest - opened url file:///home/travis/build/npmdoc/node-npmdoc-npm-check/tmp/build/apidoc\</tspan>
<tspan x="10" y="778">.html</tspan>
<tspan x="10" y="794"></tspan>
<tspan x="10" y="810"></tspan>
<tspan x="10" y="826">browserTest - created screen-capture file:///home/travis/build/npmdoc/node-npmdoc-npm-check/tmp/\</tspan>
<tspan x="10" y="842">build/screen-capture.npmTest.browser._2Fhome_2Ftravis_2Fbuild_2Fnpmdoc_2Fnode-npmdoc-npm-check_2\</tspan>
<tspan x="10" y="858">Ftmp_2Fbuild_2Fapidoc.html.png</tspan>
<tspan x="10" y="874"></tspan>
<tspan x="10" y="890"></tspan>
<tspan x="10" y="906">browserTest - exit-code 0 - file:///home/travis/build/npmdoc/node-npmdoc-npm-check/tmp/build/api\</tspan>
<tspan x="10" y="922">doc.html</tspan>
<tspan x="10" y="938"></tspan>
<tspan x="10" y="954">[node test-case 4 of 6 passed] - testCase_buildApidoc_default</tspan>
<tspan x="10" y="970">[node test-case 5 of 6 passed] - testCase_buildApp_default</tspan>
<tspan x="10" y="986"></tspan>
<tspan x="10" y="1002">browserTest - opened url http://127.0.0.1:44010?modeTest=1</tspan>
<tspan x="10" y="1018"></tspan>
<tspan x="10" y="1034"></tspan>
<tspan x="10" y="1050">npm-check    NOTUSED?  Still using npm-check?</tspan>
<tspan x="10" y="1066">                       Depcheck did not find code similar to require('npm-check') or import from\</tspan>
<tspan x="10" y="1082"> 'npm-check'.</tspan>
<tspan x="10" y="1098">                       Check your code before removing as depcheck isn't able to foresee all way\</tspan>
<tspan x="10" y="1114">s dependencies can be used.</tspan>
<tspan x="10" y="1130">                       Use --skip-unused to skip this check.</tspan>
<tspan x="10" y="1146">                       To remove this package: npm uninstall --save-dev npm-check</tspan>
<tspan x="10" y="1162"></tspan>
<tspan x="10" y="1178">source-map   MISSING!  Not installed.</tspan>
<tspan x="10" y="1194">             PKG ERR!  Not in the package.json. Found in: /tmp/assets.app.js</tspan>
<tspan x="10" y="1210"></tspan>
<tspan x="10" y="1226">estraverse   MISSING!  Not installed.</tspan>
<tspan x="10" y="1242">             PKG ERR!  Not in the package.json. Found in: /tmp/assets.app.js</tspan>
<tspan x="10" y="1258"></tspan>
<tspan x="10" y="1274">esutils      PKG ERR!  Not in the package.json. Found in: /tmp/assets.app.js</tspan>
<tspan x="10" y="1290"></tspan>
<tspan x="10" y="1306">esprima      PKG ERR!  Not in the package.json. Found in: /tmp/assets.app.js</tspan>
<tspan x="10" y="1322"></tspan>
<tspan x="10" y="1338">escodegen    MISSING!  Not installed.</tspan>
<tspan x="10" y="1354">             PKG ERR!  Not in the package.json. Found in: /tmp/assets.app.js</tspan>
<tspan x="10" y="1370"></tspan>
<tspan x="10" y="1386">handlebars   MISSING!  Not installed.</tspan>
<tspan x="10" y="1402">             PKG ERR!  Not in the package.json. Found in: /tmp/assets.app.js</tspan>
<tspan x="10" y="1418"></tspan>
<tspan x="10" y="1434">mkdirp       PKG ERR!  Not in the package.json. Found in: /tmp/assets.app.js</tspan>
<tspan x="10" y="1450"></tspan>
<tspan x="10" y="1466">electron     MISSING!  Not installed.</tspan>
<tspan x="10" y="1482">             PKG ERR!  Not in the package.json. Found in: /tmp/assets.app.js</tspan>
<tspan x="10" y="1498"></tspan>
<tspan x="10" y="1514">Use npm-check -u for interactive update.</tspan>
<tspan x="10" y="1530">[4701:0325/174409:INFO:CONSOLE(203)] "----------|-----------|-----------|-----------|-----------\</tspan>
<tspan x="10" y="1546">|</tspan>
<tspan x="10" y="1562">File      |   % Stmts |% Branches |   % Funcs |   % Lines |</tspan>
<tspan x="10" y="1578">----------|-----------|-----------|-----------|-----------|</tspan>
<tspan x="10" y="1594">----------|-----------|-----------|-----------|-----------|</tspan>
<tspan x="10" y="1610">All files |       100 |       100 |       100 |       100 |</tspan>
<tspan x="10" y="1626">----------|-----------|-----------|-----------|-----------|</tspan>
<tspan x="10" y="1642">", source: file:///home/travis/build/npmdoc/node-npmdoc-npm-check/tmp/electron.15b069154f60.df95\</tspan>
<tspan x="10" y="1658">862ef886d.html (203)</tspan>
<tspan x="10" y="1674">[4701:0325/174409:INFO:CONSOLE(203)] "created coverage file:///tmp/build/coverage.html/index.htm\</tspan>
<tspan x="10" y="1690">l", source: file:///home/travis/build/npmdoc/node-npmdoc-npm-check/tmp/electron.15b069154f60.df9\</tspan>
<tspan x="10" y="1706">5862ef886d.html (203)</tspan>
<tspan x="10" y="1722"></tspan>
<tspan x="10" y="1738">browserTest - created screen-capture file:///home/travis/build/npmdoc/node-npmdoc-npm-check/tmp/\</tspan>
<tspan x="10" y="1754">build/screen-capture.npmTest.browser..png</tspan>
<tspan x="10" y="1770"></tspan>
<tspan x="10" y="1786"></tspan>
<tspan x="10" y="1802">browserTest - exit-code 0 - http://127.0.0.1:44010?modeTest=1</tspan>
<tspan x="10" y="1818"></tspan>
<tspan x="10" y="1834"></tspan>
<tspan x="10" y="1850">browserTest - merged coverage from /home/travis/build/npmdoc/node-npmdoc-npm-check/tmp/coverage.\</tspan>
<tspan x="10" y="1866">npmTest.browser.%2F.json</tspan>
<tspan x="10" y="1882"></tspan>
<tspan x="10" y="1898"></tspan>
<tspan x="10" y="1914">browserTest - merging test-report from /home/travis/build/npmdoc/node-npmdoc-npm-check/tmp/test-\</tspan>
<tspan x="10" y="1930">report.npmTest.browser.%2F.json</tspan>
<tspan x="10" y="1946"></tspan>
<tspan x="10" y="1962">[node test-case 6 of 6 passed] - testCase_webpage_default</tspan>
<tspan x="10" y="1978">------------------------------|-----------|-----------|-----------|-----------|</tspan>
<tspan x="10" y="1994">File                          |   % Stmts |% Branches |   % Funcs |   % Lines |</tspan>
<tspan x="10" y="2010">------------------------------|-----------|-----------|-----------|-----------|</tspan>
<tspan x="10" y="2026">   node-npmdoc-npm-check/     |       100 |       100 |       100 |       100 |</tspan>
<tspan x="10" y="2042">      example.js              |       100 |       100 |       100 |       100 |</tspan>
<tspan x="10" y="2058">      lib.npmdoc_npm_check.js |       100 |       100 |       100 |       100 |</tspan>
<tspan x="10" y="2074">      test.js                 |       100 |       100 |       100 |       100 |</tspan>
<tspan x="10" y="2090">------------------------------|-----------|-----------|-----------|-----------|</tspan>
<tspan x="10" y="2106">All files                     |       100 |       100 |       100 |       100 |</tspan>
<tspan x="10" y="2122">------------------------------|-----------|-----------|-----------|-----------|</tspan>
<tspan x="10" y="2138"></tspan>
<tspan x="10" y="2154">created coverage file:///home/travis/build/npmdoc/node-npmdoc-npm-check/tmp/build/coverage.html/\</tspan>
<tspan x="10" y="2170">index.html</tspan>
<tspan x="10" y="2186">merging file:///home/travis/build/npmdoc/node-npmdoc-npm-check/tmp/build/test-report.json to tes\</tspan>
<tspan x="10" y="2202">t-report</tspan>
<tspan x="10" y="2218"></tspan>
<tspan x="10" y="2234">-------------------------------------------------------</tspan>
<tspan x="10" y="2250">| test-report - buildNpmdoc - node - linux v6.10.1 - 2017-03-25T17:43:47.942Z</tspan>
<tspan x="10" y="2266">|   24083 ms            0 failed        6 passed      |</tspan>
<tspan x="10" y="2282">-------------------------------------------------------</tspan>
<tspan x="10" y="2298"></tspan>
<tspan x="10" y="2314">created test-report file:///home/travis/build/npmdoc/node-npmdoc-npm-check/tmp/build/test-report\</tspan>
<tspan x="10" y="2330">.html</tspan>
<tspan x="10" y="2346"></tspan>
<tspan x="10" y="2362"></tspan>
<tspan x="10" y="2378">npmTest - 0 failed tests</tspan>
<tspan x="10" y="2394"></tspan>
<tspan x="10" y="2410"></tspan>
<tspan x="10" y="2426">[MODE_BUILD=npmTest] - 2017-03-25T17:44:14Z - EXIT_CODE - 0</tspan>
</text>
</svg>
